<svg xmlns="http://www.w3.org/2000/svg" xmlns:xlink="http://www.w3.org/1999/xlink" height="800px" width="800px" version="1.1" id="Layer_1" viewBox="0 0 392.509 392.509" xml:space="preserve">
<path style="fill:#56ACE0;" d="M172.865,353.735l27.604-27.604L78.352,204.078l-51.717,51.717c-6.465,6.465-6.465,17.002,0,23.467  l74.473,74.473c3.168,3.168,7.37,4.848,11.766,4.848h48.226C165.495,358.583,169.697,356.838,172.865,353.735z"/>
<path style="fill:#FFFFFF;" d="M267.248,38.518c-6.271-6.271-17.261-6.271-23.467,0L93.802,188.563L215.919,310.68l149.98-149.98  c6.465-6.465,6.465-17.002,0-23.467L267.248,38.518z"/>
<path style="fill:#FFC10D;" d="M255.547,57.654l-10.343,10.343l32.194,32.194c4.267,4.267,4.267,11.119,0,15.451  c-3.038,3.038-11.766,3.62-15.451,0l-32.129-32.194l-20.687,20.687l10.796,10.796c4.267,4.267,4.267,11.119,0,15.45  c-3.943,3.943-12.412,2.909-15.451,0l-10.796-10.796l-69.042,69.042l91.281,91.281l130.909-130.909L255.547,57.654z"/>
<path style="fill:#194F82;" d="M381.349,121.783l-98.586-98.586c-15.321-15.192-40.016-14.287-54.303,0L11.248,240.28  c-14.998,14.998-14.998,39.305,0,54.303l74.473,74.473c7.24,7.24,16.937,11.313,27.216,11.313h48.226  c10.279,0,19.911-4.008,27.216-11.313l193.034-193.034C396.218,161.153,396.218,136.781,381.349,121.783z M172.865,353.735  c-3.103,3.103-7.37,4.848-11.766,4.848h-48.226c-4.396,0-8.663-1.745-11.766-4.848l-74.473-74.473  c-6.271-6.206-6.594-16.937,0-23.467l51.717-51.717l122.117,122.117L172.865,353.735z M365.899,160.7l-149.98,149.98L93.802,188.628  l149.98-149.98c5.883-6.206,16.937-6.659,23.467,0l98.586,98.586C372.364,143.634,372.364,154.236,365.899,160.7z"/>
</svg>